<mxfile host="app.diagrams.net" agent="Mozilla/5.0 (Windows NT 10.0; Win64; x64; rv:139.0) Gecko/20100101 Firefox/139.0" version="27.1.6" pages="2">
  <diagram name="Page-1" id="tGjCxVL7hpo2FjN-qWHm">
    <mxGraphModel dx="1310" dy="785" grid="1" gridSize="10" guides="1" tooltips="1" connect="1" arrows="1" fold="1" page="1" pageScale="1" pageWidth="3300" pageHeight="4681" math="0" shadow="0">
      <root>
        <mxCell id="0" />
        <mxCell id="1" parent="0" />
        <mxCell id="j1P_fTxXA2EI7-osTMNT-3" style="edgeStyle=orthogonalEdgeStyle;rounded=0;orthogonalLoop=1;jettySize=auto;html=1;entryX=0;entryY=0.5;entryDx=0;entryDy=0;" parent="1" source="j1P_fTxXA2EI7-osTMNT-1" target="j1P_fTxXA2EI7-osTMNT-2" edge="1">
          <mxGeometry relative="1" as="geometry" />
        </mxCell>
        <mxCell id="j1P_fTxXA2EI7-osTMNT-1" value="actor&#xa;Physicians" style="triangle;fillColor=#ffe6cc;strokeColor=#d79b00;" parent="1" name="actor" vertex="1">
          <mxGeometry x="860" y="250" width="100" height="50" as="geometry" />
        </mxCell>
        <mxCell id="j1P_fTxXA2EI7-osTMNT-6" style="edgeStyle=orthogonalEdgeStyle;rounded=0;orthogonalLoop=1;jettySize=auto;html=1;exitX=1;exitY=0.5;exitDx=0;exitDy=0;entryX=0.5;entryY=0;entryDx=0;entryDy=0;" parent="1" source="j1P_fTxXA2EI7-osTMNT-2" target="j1P_fTxXA2EI7-osTMNT-4" edge="1">
          <mxGeometry relative="1" as="geometry" />
        </mxCell>
        <mxCell id="j1P_fTxXA2EI7-osTMNT-2" value="generate:engineer" style="rounded=1;whiteSpace=wrap;html=1;arcSize=50;fillColor=#e1d5e7;strokeColor=#9673a6;" parent="1" name="generate:engineer" vertex="1">
          <mxGeometry x="1030" y="250" width="100" height="50" as="geometry" />
        </mxCell>
        <mxCell id="j1P_fTxXA2EI7-osTMNT-4" value="model:rule-based" style="shape=hexagon;perimeter=hexagonPerimeter2;fillColor=#b0e3e6;strokeColor=#0e8088;" parent="1" name="model" vertex="1">
          <mxGeometry x="1130" y="340" width="120" height="50" as="geometry" />
        </mxCell>
        <mxCell id="j1P_fTxXA2EI7-osTMNT-9" style="edgeStyle=orthogonalEdgeStyle;rounded=0;orthogonalLoop=1;jettySize=auto;html=1;entryX=0;entryY=0.5;entryDx=0;entryDy=0;" parent="1" source="j1P_fTxXA2EI7-osTMNT-7" target="j1P_fTxXA2EI7-osTMNT-8" edge="1">
          <mxGeometry relative="1" as="geometry" />
        </mxCell>
        <mxCell id="j1P_fTxXA2EI7-osTMNT-7" value="data&#xa;Previous Cases" style="rectangle;fillColor=#fff2cc;strokeColor=#d6b656;" parent="1" name="data" vertex="1">
          <mxGeometry x="860" y="530" width="100" height="50" as="geometry" />
        </mxCell>
        <mxCell id="j1P_fTxXA2EI7-osTMNT-11" style="edgeStyle=orthogonalEdgeStyle;rounded=0;orthogonalLoop=1;jettySize=auto;html=1;exitX=1;exitY=0.5;exitDx=0;exitDy=0;entryX=0.5;entryY=1;entryDx=0;entryDy=0;" parent="1" source="j1P_fTxXA2EI7-osTMNT-8" target="j1P_fTxXA2EI7-osTMNT-10" edge="1">
          <mxGeometry relative="1" as="geometry" />
        </mxCell>
        <mxCell id="j1P_fTxXA2EI7-osTMNT-8" value="generate:train" style="rounded=1;whiteSpace=wrap;html=1;arcSize=50;fillColor=#e1d5e7;strokeColor=#9673a6;" parent="1" name="generate:train" vertex="1">
          <mxGeometry x="1030" y="530" width="100" height="50" as="geometry" />
        </mxCell>
        <mxCell id="-o311iy1u4d11XJ8iY6p-1" style="edgeStyle=orthogonalEdgeStyle;rounded=0;orthogonalLoop=1;jettySize=auto;html=1;exitX=0.5;exitY=0;exitDx=0;exitDy=0;entryX=0;entryY=0.5;entryDx=0;entryDy=0;" parent="1" source="j1P_fTxXA2EI7-osTMNT-10" target="j1P_fTxXA2EI7-osTMNT-12" edge="1">
          <mxGeometry relative="1" as="geometry" />
        </mxCell>
        <mxCell id="j1P_fTxXA2EI7-osTMNT-10" value="model:case-based" style="shape=hexagon;perimeter=hexagonPerimeter2;fillColor=#b0e3e6;strokeColor=#0e8088;" parent="1" name="model" vertex="1">
          <mxGeometry x="1130" y="440" width="120" height="50" as="geometry" />
        </mxCell>
        <mxCell id="j1P_fTxXA2EI7-osTMNT-19" style="edgeStyle=orthogonalEdgeStyle;rounded=0;orthogonalLoop=1;jettySize=auto;html=1;exitX=1;exitY=0.5;exitDx=0;exitDy=0;entryX=0;entryY=0.5;entryDx=0;entryDy=0;" parent="1" source="j1P_fTxXA2EI7-osTMNT-12" target="j1P_fTxXA2EI7-osTMNT-18" edge="1">
          <mxGeometry relative="1" as="geometry" />
        </mxCell>
        <mxCell id="j1P_fTxXA2EI7-osTMNT-12" value="infer:deduce" style="rounded=1;whiteSpace=wrap;html=1;arcSize=50;fillColor=#bac8d3;strokeColor=#23445d;" parent="1" name="infer:deduce" vertex="1">
          <mxGeometry x="1300" y="390" width="100" height="50" as="geometry" />
        </mxCell>
        <mxCell id="j1P_fTxXA2EI7-osTMNT-15" value="&lt;div&gt;error&lt;/div&gt;&lt;div&gt;--&amp;gt;&lt;/div&gt;" style="text;html=1;align=center;verticalAlign=middle;whiteSpace=wrap;rounded=0;dashed=1;fillColor=#f5f5f5;fontColor=#333333;strokeColor=#666666;strokeWidth=2;" parent="1" name="text" vertex="1">
          <mxGeometry x="1250" y="370" width="40" height="40" as="geometry" />
        </mxCell>
        <mxCell id="j1P_fTxXA2EI7-osTMNT-17" style="edgeStyle=orthogonalEdgeStyle;rounded=0;orthogonalLoop=1;jettySize=auto;html=1;entryX=0.5;entryY=1;entryDx=0;entryDy=0;" parent="1" source="j1P_fTxXA2EI7-osTMNT-16" target="j1P_fTxXA2EI7-osTMNT-12" edge="1">
          <mxGeometry relative="1" as="geometry" />
        </mxCell>
        <mxCell id="j1P_fTxXA2EI7-osTMNT-16" value="data&#xa;Current Case" style="rectangle;fillColor=#fff2cc;strokeColor=#d6b656;" parent="1" name="data" vertex="1">
          <mxGeometry x="1300" y="530" width="100" height="50" as="geometry" />
        </mxCell>
        <mxCell id="j1P_fTxXA2EI7-osTMNT-18" value="symbol&#xa;Final Diagnosis" style="rectangle;fillColor=#dae8fc;strokeColor=#6c8ebf;" parent="1" name="symbol" vertex="1">
          <mxGeometry x="1490" y="390" width="100" height="50" as="geometry" />
        </mxCell>
      </root>
    </mxGraphModel>
  </diagram>
  <diagram name="Copy of Page-1" id="FuaBTrFEFoAiRUZS3TS_">
    <mxGraphModel dx="1123" dy="673" grid="1" gridSize="10" guides="1" tooltips="1" connect="1" arrows="1" fold="1" page="1" pageScale="1" pageWidth="3300" pageHeight="4681" math="0" shadow="0">
      <root>
        <mxCell id="3XiieBGKLd35mGJI60tK-0" />
        <mxCell id="3XiieBGKLd35mGJI60tK-1" parent="3XiieBGKLd35mGJI60tK-0" />
        <mxCell id="3XiieBGKLd35mGJI60tK-2" style="edgeStyle=orthogonalEdgeStyle;rounded=0;orthogonalLoop=1;jettySize=auto;html=1;entryX=0;entryY=0.5;entryDx=0;entryDy=0;" edge="1" parent="3XiieBGKLd35mGJI60tK-1" source="3XiieBGKLd35mGJI60tK-3" target="3XiieBGKLd35mGJI60tK-5">
          <mxGeometry relative="1" as="geometry" />
        </mxCell>
        <mxCell id="3XiieBGKLd35mGJI60tK-3" value="actor&#xa;Physicians" style="triangle;fillColor=#ffe6cc;strokeColor=#d79b00;" name="actor" vertex="1" parent="3XiieBGKLd35mGJI60tK-1">
          <mxGeometry x="860" y="250" width="100" height="50" as="geometry" />
        </mxCell>
        <mxCell id="3XiieBGKLd35mGJI60tK-4" style="edgeStyle=orthogonalEdgeStyle;rounded=0;orthogonalLoop=1;jettySize=auto;html=1;exitX=1;exitY=0.5;exitDx=0;exitDy=0;entryX=0.5;entryY=0;entryDx=0;entryDy=0;" edge="1" parent="3XiieBGKLd35mGJI60tK-1" source="3XiieBGKLd35mGJI60tK-5" target="3XiieBGKLd35mGJI60tK-6">
          <mxGeometry relative="1" as="geometry" />
        </mxCell>
        <mxCell id="3XiieBGKLd35mGJI60tK-5" value="generate:engineer" style="rounded=1;whiteSpace=wrap;html=1;arcSize=50;fillColor=#e1d5e7;strokeColor=#9673a6;" name="generate:engineer" vertex="1" parent="3XiieBGKLd35mGJI60tK-1">
          <mxGeometry x="1030" y="250" width="100" height="50" as="geometry" />
        </mxCell>
        <mxCell id="lLp6C9UdrOVIqDVxrbxh-0" style="edgeStyle=orthogonalEdgeStyle;rounded=0;orthogonalLoop=1;jettySize=auto;html=1;exitX=0.5;exitY=1;exitDx=0;exitDy=0;entryX=0;entryY=0.5;entryDx=0;entryDy=0;" edge="1" parent="3XiieBGKLd35mGJI60tK-1" source="3XiieBGKLd35mGJI60tK-6" target="3XiieBGKLd35mGJI60tK-14">
          <mxGeometry relative="1" as="geometry" />
        </mxCell>
        <mxCell id="3XiieBGKLd35mGJI60tK-6" value="model:rule-based" style="shape=hexagon;perimeter=hexagonPerimeter2;fillColor=#b0e3e6;strokeColor=#0e8088;" name="model" vertex="1" parent="3XiieBGKLd35mGJI60tK-1">
          <mxGeometry x="1130" y="340" width="120" height="50" as="geometry" />
        </mxCell>
        <mxCell id="3XiieBGKLd35mGJI60tK-7" style="edgeStyle=orthogonalEdgeStyle;rounded=0;orthogonalLoop=1;jettySize=auto;html=1;entryX=0;entryY=0.5;entryDx=0;entryDy=0;" edge="1" parent="3XiieBGKLd35mGJI60tK-1" source="3XiieBGKLd35mGJI60tK-8" target="3XiieBGKLd35mGJI60tK-10">
          <mxGeometry relative="1" as="geometry" />
        </mxCell>
        <mxCell id="3XiieBGKLd35mGJI60tK-8" value="data&#xa;Previous Cases" style="rectangle;fillColor=#fff2cc;strokeColor=#d6b656;" name="data" vertex="1" parent="3XiieBGKLd35mGJI60tK-1">
          <mxGeometry x="860" y="530" width="100" height="50" as="geometry" />
        </mxCell>
        <mxCell id="3XiieBGKLd35mGJI60tK-9" style="edgeStyle=orthogonalEdgeStyle;rounded=0;orthogonalLoop=1;jettySize=auto;html=1;exitX=1;exitY=0.5;exitDx=0;exitDy=0;entryX=0.5;entryY=1;entryDx=0;entryDy=0;" edge="1" parent="3XiieBGKLd35mGJI60tK-1" source="3XiieBGKLd35mGJI60tK-10" target="3XiieBGKLd35mGJI60tK-12">
          <mxGeometry relative="1" as="geometry" />
        </mxCell>
        <mxCell id="3XiieBGKLd35mGJI60tK-10" value="generate:train" style="rounded=1;whiteSpace=wrap;html=1;arcSize=50;fillColor=#e1d5e7;strokeColor=#9673a6;" name="generate:train" vertex="1" parent="3XiieBGKLd35mGJI60tK-1">
          <mxGeometry x="1030" y="530" width="100" height="50" as="geometry" />
        </mxCell>
        <mxCell id="3XiieBGKLd35mGJI60tK-11" style="edgeStyle=orthogonalEdgeStyle;rounded=0;orthogonalLoop=1;jettySize=auto;html=1;exitX=0.5;exitY=0;exitDx=0;exitDy=0;entryX=0;entryY=0.5;entryDx=0;entryDy=0;" edge="1" parent="3XiieBGKLd35mGJI60tK-1" source="3XiieBGKLd35mGJI60tK-12" target="3XiieBGKLd35mGJI60tK-14">
          <mxGeometry relative="1" as="geometry" />
        </mxCell>
        <mxCell id="3XiieBGKLd35mGJI60tK-12" value="model:case-based" style="shape=hexagon;perimeter=hexagonPerimeter2;fillColor=#b0e3e6;strokeColor=#0e8088;" name="model" vertex="1" parent="3XiieBGKLd35mGJI60tK-1">
          <mxGeometry x="1130" y="440" width="120" height="50" as="geometry" />
        </mxCell>
        <mxCell id="3XiieBGKLd35mGJI60tK-13" style="edgeStyle=orthogonalEdgeStyle;rounded=0;orthogonalLoop=1;jettySize=auto;html=1;exitX=1;exitY=0.5;exitDx=0;exitDy=0;entryX=0;entryY=0.5;entryDx=0;entryDy=0;" edge="1" parent="3XiieBGKLd35mGJI60tK-1" source="3XiieBGKLd35mGJI60tK-14" target="3XiieBGKLd35mGJI60tK-18">
          <mxGeometry relative="1" as="geometry" />
        </mxCell>
        <mxCell id="3XiieBGKLd35mGJI60tK-14" value="infer:deduce" style="rounded=1;whiteSpace=wrap;html=1;arcSize=50;fillColor=#bac8d3;strokeColor=#23445d;" name="infer:deduce" vertex="1" parent="3XiieBGKLd35mGJI60tK-1">
          <mxGeometry x="1300" y="390" width="100" height="50" as="geometry" />
        </mxCell>
        <mxCell id="3XiieBGKLd35mGJI60tK-16" style="edgeStyle=orthogonalEdgeStyle;rounded=0;orthogonalLoop=1;jettySize=auto;html=1;entryX=0.5;entryY=1;entryDx=0;entryDy=0;" edge="1" parent="3XiieBGKLd35mGJI60tK-1" source="3XiieBGKLd35mGJI60tK-17" target="3XiieBGKLd35mGJI60tK-14">
          <mxGeometry relative="1" as="geometry" />
        </mxCell>
        <mxCell id="3XiieBGKLd35mGJI60tK-17" value="data&#xa;Current Case" style="rectangle;fillColor=#fff2cc;strokeColor=#d6b656;" name="data" vertex="1" parent="3XiieBGKLd35mGJI60tK-1">
          <mxGeometry x="1300" y="530" width="100" height="50" as="geometry" />
        </mxCell>
        <mxCell id="3XiieBGKLd35mGJI60tK-18" value="symbol&#xa;Final Diagnosis" style="rectangle;fillColor=#dae8fc;strokeColor=#6c8ebf;" name="symbol" vertex="1" parent="3XiieBGKLd35mGJI60tK-1">
          <mxGeometry x="1490" y="390" width="100" height="50" as="geometry" />
        </mxCell>
      </root>
    </mxGraphModel>
  </diagram>
</mxfile>
